<svg width="152" height="152" viewBox="0 0 152 152" fill="none" xmlns="http://www.w3.org/2000/svg">
<path d="M49.78 12.666H102.22L139.333 49.7793V102.219L102.22 139.333H49.78L12.6666 102.219V49.7793L49.78 12.666Z" fill="#AF3B3B" stroke="#E8C0C1" stroke-width="4" stroke-linecap="round" stroke-linejoin="round"/>
<path d="M38.4588 74.3281H36.5923C36.5582 74.0866 36.4886 73.8722 36.3835 73.6847C36.2784 73.4943 36.1435 73.3324 35.9787 73.1989C35.8139 73.0653 35.6236 72.9631 35.4077 72.892C35.1946 72.821 34.9631 72.7855 34.7131 72.7855C34.2614 72.7855 33.8679 72.8977 33.5327 73.1222C33.1974 73.3437 32.9375 73.6676 32.7528 74.0938C32.5682 74.517 32.4759 75.0312 32.4759 75.6364C32.4759 76.2585 32.5682 76.7812 32.7528 77.2045C32.9403 77.6278 33.2017 77.9474 33.5369 78.1634C33.8722 78.3793 34.2599 78.4872 34.7003 78.4872C34.9474 78.4872 35.1761 78.4545 35.3864 78.3892C35.5994 78.3239 35.7884 78.2287 35.9531 78.1037C36.1179 77.9759 36.2543 77.821 36.3622 77.6392C36.473 77.4574 36.5497 77.25 36.5923 77.017L38.4588 77.0256C38.4105 77.4261 38.2898 77.8125 38.0966 78.1847C37.9063 78.554 37.6491 78.8849 37.3253 79.1776C37.0043 79.4673 36.6207 79.6974 36.1747 79.8679C35.7315 80.0355 35.2301 80.1193 34.6705 80.1193C33.892 80.1193 33.196 79.9432 32.5824 79.5909C31.9716 79.2386 31.4886 78.7287 31.1335 78.0611C30.7812 77.3935 30.6051 76.5852 30.6051 75.6364C30.6051 74.6847 30.7841 73.875 31.142 73.2074C31.5 72.5398 31.9858 72.0312 32.5994 71.6818C33.2131 71.3295 33.9034 71.1534 34.6705 71.1534C35.1761 71.1534 35.6449 71.2244 36.0767 71.3665C36.5114 71.5085 36.8963 71.7159 37.2315 71.9886C37.5668 72.2585 37.8395 72.5895 38.0497 72.9815C38.2628 73.3736 38.3991 73.8224 38.4588 74.3281ZM41.6143 80.1236C41.1967 80.1236 40.8246 80.0511 40.4979 79.9062C40.1712 79.7585 39.9126 79.5412 39.7223 79.2543C39.5348 78.9645 39.4411 78.6037 39.4411 78.1719C39.4411 77.8082 39.5078 77.5028 39.6413 77.2557C39.7749 77.0085 39.9567 76.8097 40.1868 76.6591C40.4169 76.5085 40.6783 76.3949 40.9709 76.3182C41.2663 76.2415 41.576 76.1875 41.8999 76.1562C42.2805 76.1165 42.5874 76.0795 42.8203 76.0455C43.0533 76.0085 43.2223 75.9545 43.3274 75.8835C43.4325 75.8125 43.4851 75.7074 43.4851 75.5682V75.5426C43.4851 75.2727 43.3999 75.0639 43.2294 74.9162C43.0618 74.7685 42.8232 74.6946 42.5135 74.6946C42.1868 74.6946 41.9268 74.767 41.7337 74.9119C41.5405 75.054 41.4126 75.233 41.3501 75.4489L39.6712 75.3125C39.7564 74.9148 39.924 74.571 40.174 74.2812C40.424 73.9886 40.7464 73.7642 41.1413 73.608C41.5391 73.4489 41.9993 73.3693 42.522 73.3693C42.8857 73.3693 43.2337 73.4119 43.5661 73.4972C43.9013 73.5824 44.1982 73.7145 44.4567 73.8935C44.718 74.0724 44.924 74.3026 45.0746 74.5838C45.2251 74.8622 45.3004 75.196 45.3004 75.5852V80H43.5788V79.0923H43.5277C43.4226 79.2969 43.282 79.4773 43.1058 79.6335C42.9297 79.7869 42.718 79.9077 42.4709 79.9957C42.2237 80.081 41.9382 80.1236 41.6143 80.1236ZM42.1342 78.8707C42.4013 78.8707 42.6371 78.8182 42.8416 78.7131C43.0462 78.6051 43.2067 78.4602 43.3232 78.2784C43.4396 78.0966 43.4979 77.8906 43.4979 77.6605V76.9659C43.4411 77.0028 43.3629 77.0369 43.2635 77.0682C43.1669 77.0966 43.0575 77.1236 42.9354 77.1491C42.8132 77.1719 42.6911 77.1932 42.5689 77.2131C42.4467 77.2301 42.3359 77.2457 42.2365 77.2599C42.0234 77.2912 41.8374 77.3409 41.6783 77.4091C41.5192 77.4773 41.3956 77.5696 41.3075 77.6861C41.2195 77.7997 41.1754 77.9418 41.1754 78.1122C41.1754 78.3594 41.2649 78.5483 41.4439 78.679C41.6257 78.8068 41.8558 78.8707 42.1342 78.8707ZM48.5241 76.2159V80H46.7088V73.4545H48.4389V74.6094H48.5156C48.6605 74.2287 48.9034 73.9276 49.2443 73.706C49.5852 73.4815 49.9986 73.3693 50.4844 73.3693C50.9389 73.3693 51.3352 73.4688 51.6733 73.6676C52.0114 73.8665 52.2741 74.1506 52.4616 74.5199C52.6491 74.8864 52.7429 75.3239 52.7429 75.8324V80H50.9276V76.1562C50.9304 75.7557 50.8281 75.4432 50.6207 75.2188C50.4134 74.9915 50.1278 74.8778 49.7642 74.8778C49.5199 74.8778 49.304 74.9304 49.1165 75.0355C48.9318 75.1406 48.7869 75.294 48.6818 75.4957C48.5795 75.6946 48.527 75.9347 48.5241 76.2159ZM57.131 80.1278C56.4606 80.1278 55.8839 79.9858 55.4009 79.7017C54.9208 79.4148 54.5515 79.017 54.293 78.5085C54.0373 78 53.9094 77.4148 53.9094 76.7528C53.9094 76.0824 54.0387 75.4943 54.2972 74.9886C54.5586 74.4801 54.9293 74.0838 55.4094 73.7997C55.8896 73.5128 56.4606 73.3693 57.1225 73.3693C57.6935 73.3693 58.1935 73.473 58.6225 73.6804C59.0515 73.8878 59.391 74.179 59.641 74.554C59.891 74.929 60.0288 75.3693 60.0543 75.875H58.3413C58.293 75.5483 58.1651 75.2855 57.9577 75.0866C57.7532 74.8849 57.4847 74.7841 57.1523 74.7841C56.8711 74.7841 56.6254 74.8608 56.4151 75.0142C56.2077 75.1648 56.0458 75.3849 55.9293 75.6747C55.8129 75.9645 55.7546 76.3153 55.7546 76.7273C55.7546 77.1449 55.8114 77.5 55.9251 77.7926C56.0415 78.0852 56.2049 78.3082 56.4151 78.4616C56.6254 78.6151 56.8711 78.6918 57.1523 78.6918C57.3597 78.6918 57.5458 78.6491 57.7106 78.5639C57.8782 78.4787 58.016 78.3551 58.1239 78.1932C58.2347 78.0284 58.3072 77.831 58.3413 77.6009H60.0543C60.0259 78.1009 59.8896 78.5412 59.6452 78.9219C59.4038 79.2997 59.07 79.5952 58.6438 79.8082C58.2177 80.0213 57.7134 80.1278 57.131 80.1278ZM64.1996 80.1278C63.5263 80.1278 62.9467 79.9915 62.4609 79.7188C61.978 79.4432 61.6058 79.054 61.3445 78.5511C61.0831 78.0455 60.9524 77.4474 60.9524 76.7571C60.9524 76.0838 61.0831 75.4929 61.3445 74.9844C61.6058 74.4759 61.9737 74.0795 62.4482 73.7955C62.9254 73.5114 63.4851 73.3693 64.1271 73.3693C64.5589 73.3693 64.9609 73.4389 65.3331 73.5781C65.7081 73.7145 66.0348 73.9205 66.3132 74.196C66.5945 74.4716 66.8132 74.8182 66.9695 75.2358C67.1257 75.6506 67.2038 76.1364 67.2038 76.6932V77.1918H61.6768V76.0668H65.495C65.495 75.8054 65.4382 75.5739 65.3246 75.3722C65.2109 75.1705 65.0533 75.0128 64.8516 74.8991C64.6527 74.7827 64.4212 74.7244 64.157 74.7244C63.8814 74.7244 63.6371 74.7884 63.424 74.9162C63.2138 75.0412 63.049 75.2102 62.9297 75.4233C62.8104 75.6335 62.7493 75.8679 62.7464 76.1264V77.196C62.7464 77.5199 62.8061 77.7997 62.9254 78.0355C63.0476 78.2713 63.2195 78.4531 63.4411 78.581C63.6626 78.7088 63.9254 78.7727 64.2294 78.7727C64.4311 78.7727 64.6158 78.7443 64.7834 78.6875C64.951 78.6307 65.0945 78.5455 65.2138 78.4318C65.3331 78.3182 65.424 78.179 65.4865 78.0142L67.1655 78.125C67.0803 78.5284 66.9055 78.8807 66.6413 79.1818C66.38 79.4801 66.0419 79.7131 65.6271 79.8807C65.2152 80.0455 64.7393 80.1278 64.1996 80.1278ZM70.2038 71.2727V80H68.3885V71.2727H70.2038ZM74.4695 80V71.2727H77.9126C78.5717 71.2727 79.1342 71.3906 79.6001 71.6264C80.0689 71.8594 80.4254 72.1903 80.6697 72.6193C80.9169 73.0455 81.0405 73.5469 81.0405 74.1236C81.0405 74.7031 80.9155 75.2017 80.6655 75.6193C80.4155 76.0341 80.0533 76.3523 79.5788 76.5739C79.1072 76.7955 78.5362 76.9062 77.8658 76.9062H75.5604V75.4233H77.5675C77.9197 75.4233 78.2124 75.375 78.4453 75.2784C78.6783 75.1818 78.8516 75.0369 78.9652 74.8438C79.0817 74.6506 79.1399 74.4105 79.1399 74.1236C79.1399 73.8338 79.0817 73.5895 78.9652 73.3906C78.8516 73.1918 78.6768 73.0412 78.4411 72.9389C78.2081 72.8338 77.9141 72.7812 77.5589 72.7812H76.3146V80H74.4695ZM79.1825 76.0284L81.3516 80H79.3146L77.1925 76.0284H79.1825ZM85.1879 80.1278C84.5146 80.1278 83.935 79.9915 83.4492 79.7188C82.9663 79.4432 82.5941 79.054 82.3327 78.5511C82.0714 78.0455 81.9407 77.4474 81.9407 76.7571C81.9407 76.0838 82.0714 75.4929 82.3327 74.9844C82.5941 74.4759 82.962 74.0795 83.4364 73.7955C83.9137 73.5114 84.4734 73.3693 85.1154 73.3693C85.5472 73.3693 85.9492 73.4389 86.3214 73.5781C86.6964 73.7145 87.0231 73.9205 87.3015 74.196C87.5827 74.4716 87.8015 74.8182 87.9577 75.2358C88.114 75.6506 88.1921 76.1364 88.1921 76.6932V77.1918H82.6651V76.0668H86.4833C86.4833 75.8054 86.4265 75.5739 86.3129 75.3722C86.1992 75.1705 86.0415 75.0128 85.8398 74.8991C85.641 74.7827 85.4094 74.7244 85.1452 74.7244C84.8697 74.7244 84.6254 74.7884 84.4123 74.9162C84.2021 75.0412 84.0373 75.2102 83.918 75.4233C83.7987 75.6335 83.7376 75.8679 83.7347 76.1264V77.196C83.7347 77.5199 83.7944 77.7997 83.9137 78.0355C84.0359 78.2713 84.2077 78.4531 84.4293 78.581C84.6509 78.7088 84.9137 78.7727 85.2177 78.7727C85.4194 78.7727 85.604 78.7443 85.7717 78.6875C85.9393 78.6307 86.0827 78.5455 86.2021 78.4318C86.3214 78.3182 86.4123 78.179 86.4748 78.0142L88.1538 78.125C88.0685 78.5284 87.8938 78.8807 87.6296 79.1818C87.3683 79.4801 87.0302 79.7131 86.6154 79.8807C86.2035 80.0455 85.7276 80.1278 85.1879 80.1278ZM93.7021 82.4545V78.9517H93.6467C93.5614 79.1335 93.4407 79.3139 93.2844 79.4929C93.131 79.669 92.9308 79.8153 92.6836 79.9318C92.4393 80.0483 92.141 80.1065 91.7887 80.1065C91.2915 80.1065 90.8413 79.9787 90.4379 79.723C90.0373 79.4645 89.7191 79.0852 89.4833 78.5852C89.2504 78.0824 89.1339 77.4659 89.1339 76.7358C89.1339 75.9858 89.2546 75.3622 89.4961 74.8651C89.7376 74.3651 90.0586 73.9915 90.4592 73.7443C90.8626 73.4943 91.3043 73.3693 91.7844 73.3693C92.1509 73.3693 92.4563 73.4318 92.7006 73.5568C92.9478 73.679 93.1467 73.8324 93.2972 74.017C93.4506 74.1989 93.5671 74.3778 93.6467 74.554H93.7234V73.4545H95.5131V82.4545H93.7021ZM92.364 78.6619C92.6566 78.6619 92.9038 78.5824 93.1055 78.4233C93.31 78.2614 93.4663 78.0355 93.5742 77.7457C93.685 77.456 93.7404 77.1165 93.7404 76.7273C93.7404 76.3381 93.6864 76 93.5785 75.7131C93.4705 75.4261 93.3143 75.2045 93.1097 75.0483C92.9052 74.892 92.6566 74.8139 92.364 74.8139C92.0657 74.8139 91.8143 74.8949 91.6097 75.0568C91.4052 75.2187 91.2504 75.4432 91.1452 75.7301C91.0401 76.017 90.9876 76.3494 90.9876 76.7273C90.9876 77.108 91.0401 77.4446 91.1452 77.7372C91.2532 78.027 91.408 78.2543 91.6097 78.419C91.8143 78.581 92.0657 78.6619 92.364 78.6619ZM101.168 77.2131V73.4545H102.983V80H101.24V78.8111H101.172C101.025 79.1946 100.779 79.5028 100.435 79.7358C100.094 79.9687 99.6779 80.0852 99.1864 80.0852C98.7489 80.0852 98.364 79.9858 98.0316 79.7869C97.6992 79.5881 97.4393 79.3054 97.2518 78.9389C97.0671 78.5724 96.9734 78.1335 96.9705 77.6222V73.4545H98.7859V77.2983C98.7887 77.6847 98.8924 77.9901 99.0969 78.2145C99.3015 78.4389 99.5756 78.5511 99.9194 78.5511C100.138 78.5511 100.343 78.5014 100.533 78.402C100.723 78.2997 100.877 78.1491 100.993 77.9503C101.113 77.7514 101.171 77.5057 101.168 77.2131ZM107.418 80.1278C106.745 80.1278 106.165 79.9915 105.68 79.7188C105.197 79.4432 104.825 79.054 104.563 78.5511C104.302 78.0455 104.171 77.4474 104.171 76.7571C104.171 76.0838 104.302 75.4929 104.563 74.9844C104.825 74.4759 105.192 74.0795 105.667 73.7955C106.144 73.5114 106.704 73.3693 107.346 73.3693C107.778 73.3693 108.18 73.4389 108.552 73.5781C108.927 73.7145 109.254 73.9205 109.532 74.196C109.813 74.4716 110.032 74.8182 110.188 75.2358C110.344 75.6506 110.423 76.1364 110.423 76.6932V77.1918H104.896V76.0668H108.714C108.714 75.8054 108.657 75.5739 108.543 75.3722C108.43 75.1705 108.272 75.0128 108.07 74.8991C107.871 74.7827 107.64 74.7244 107.376 74.7244C107.1 74.7244 106.856 74.7884 106.643 74.9162C106.433 75.0412 106.268 75.2102 106.148 75.4233C106.029 75.6335 105.968 75.8679 105.965 76.1264V77.196C105.965 77.5199 106.025 77.7997 106.144 78.0355C106.266 78.2713 106.438 78.4531 106.66 78.581C106.881 78.7088 107.144 78.7727 107.448 78.7727C107.65 78.7727 107.835 78.7443 108.002 78.6875C108.17 78.6307 108.313 78.5455 108.433 78.4318C108.552 78.3182 108.643 78.179 108.705 78.0142L110.384 78.125C110.299 78.5284 110.124 78.8807 109.86 79.1818C109.599 79.4801 109.261 79.7131 108.846 79.8807C108.434 80.0455 107.958 80.1278 107.418 80.1278ZM117.053 75.321L115.391 75.4233C115.363 75.2812 115.302 75.1534 115.208 75.0398C115.114 74.9233 114.991 74.831 114.837 74.7628C114.687 74.6918 114.506 74.6562 114.296 74.6562C114.015 74.6562 113.778 74.7159 113.585 74.8352C113.391 74.9517 113.295 75.108 113.295 75.304C113.295 75.4602 113.357 75.5923 113.482 75.7003C113.607 75.8082 113.822 75.8949 114.126 75.9602L115.31 76.1989C115.947 76.3295 116.421 76.5398 116.734 76.8295C117.046 77.1193 117.202 77.5 117.202 77.9716C117.202 78.4006 117.076 78.777 116.823 79.1009C116.573 79.4247 116.229 79.6776 115.792 79.8594C115.357 80.0384 114.856 80.1278 114.288 80.1278C113.421 80.1278 112.731 79.9474 112.217 79.5866C111.705 79.223 111.406 78.7287 111.317 78.1037L113.103 78.0099C113.157 78.2741 113.288 78.4759 113.495 78.6151C113.702 78.7514 113.968 78.8196 114.292 78.8196C114.61 78.8196 114.866 78.7585 115.059 78.6364C115.255 78.5114 115.354 78.3509 115.357 78.1548C115.354 77.9901 115.285 77.8551 115.148 77.75C115.012 77.642 114.802 77.5597 114.518 77.5028L113.384 77.277C112.745 77.1491 112.269 76.9276 111.957 76.6122C111.647 76.2969 111.492 75.8949 111.492 75.4062C111.492 74.9858 111.606 74.6236 111.833 74.3196C112.063 74.0156 112.386 73.7812 112.8 73.6165C113.218 73.4517 113.707 73.3693 114.266 73.3693C115.093 73.3693 115.744 73.544 116.218 73.8935C116.695 74.2429 116.974 74.7187 117.053 75.321ZM121.827 73.4545V74.8182H117.885V73.4545H121.827ZM118.78 71.8864H120.596V77.9886C120.596 78.1562 120.621 78.2869 120.672 78.3807C120.723 78.4716 120.794 78.5355 120.885 78.5724C120.979 78.6094 121.087 78.6278 121.209 78.6278C121.294 78.6278 121.38 78.6207 121.465 78.6065C121.55 78.5895 121.615 78.5767 121.661 78.5682L121.946 79.919C121.855 79.9474 121.728 79.9801 121.563 80.017C121.398 80.0568 121.198 80.081 120.962 80.0895C120.525 80.1065 120.141 80.0483 119.811 79.9148C119.485 79.7812 119.23 79.5739 119.049 79.2926C118.867 79.0114 118.777 78.6562 118.78 78.2273V71.8864Z" fill="#DCFAFF"/>
</svg>
